<svg xmlns="http://www.w3.org/2000/svg" viewBox="0 0 100 100"><title>favicon</title><g id="Layer_2" data-name="Layer 2"><g id="portrait"><path d="M70.45,7A22.61,22.61,0,0,1,93,29.62V70.38A22.61,22.61,0,0,1,70.45,93H29.55A22.61,22.61,0,0,1,7,70.38V7H70.45m0-7H0V70.38A29.67,29.67,0,0,0,29.55,100h40.9A29.67,29.67,0,0,0,100,70.38V29.62A29.67,29.67,0,0,0,70.45,0Z" style="fill:#2b385a"/><path d="M20,21.33h6.91l21,47.17L69.31,21.33h6.91L48.59,82.39H47.21Z" style="fill:#2b385a;stroke:#2b385a;stroke-linecap:round;stroke-linejoin:round;stroke-width:2px"/></g></g></svg>