<svg xmlns="http://www.w3.org/2000/svg" width="100" height="100" viewBox="0 0 100 100">
  <title>icon-v02_1</title>
  <g id="Layer_2" data-name="Layer 2">
    <g id="icon">
      <g>
        <path d="M70.45,4A25.61,25.61,0,0,1,96,29.62V70.38A25.61,25.61,0,0,1,70.45,96H29.55A25.61,25.61,0,0,1,4,70.38V4H70.45m0-4H0V70.38A29.67,29.67,0,0,0,29.55,100h40.9A29.67,29.67,0,0,0,100,70.38V29.62A29.67,29.67,0,0,0,70.45,0Z" style="fill: #2b385a"/>
        <path d="M20,21.33h6.91l21,47.17L69.31,21.33h6.91L48.59,82.39H47.21Z" style="fill: #2b385a"/>
      </g>
    </g>
  </g>
</svg>
