<svg xmlns="http://www.w3.org/2000/svg" width="249.36" height="100" viewBox="0 0 249.36 100">
  <title>logo-v05</title>
  <g id="Layer_2" data-name="Layer 2">
    <g id="logo">
      <g>
        <path d="M219.75,4a25.64,25.64,0,0,1,25.61,25.62V70.38A25.64,25.64,0,0,1,219.75,96H29.62A25.65,25.65,0,0,1,4,70.38V4H219.75m0-4H0V70.38A29.71,29.71,0,0,0,29.62,100H219.75a29.7,29.7,0,0,0,29.61-29.62V29.62A29.7,29.7,0,0,0,219.75,0Z" style="fill: #2b385a"/>
        <g>
          <path d="M44.78,59.57v3.65L18,51.53V48.29L44.78,36.55V40.2L23.05,49.93Z" style="fill: #2b385a"/>
          <path d="M49.21,31.59h4.14L66,59.89l12.83-28.3H83L66.38,68.22h-.83Z" style="fill: #2b385a"/>
          <path d="M87.2,31.59h3.91L98.89,58l10.92-26.4h.79L121.4,58l7.91-26.4h3.89L122.25,68.22h-.71l-11.3-27.71L98.71,68.22H98Z" style="fill: #2b385a"/>
          <path d="M140.27,68.22V31.59h7.89q8.55,0,12.41,1.32a16.55,16.55,0,0,1,8.66,6.48,19.1,19.1,0,0,1,3.12,11,18.67,18.67,0,0,1-2.47,9.69,15.58,15.58,0,0,1-6.42,6.17q-4,2-11.07,2Zm3.65-3.46h4.4q7.91,0,11-.94A12.63,12.63,0,0,0,166,59a14.48,14.48,0,0,0,2.46-8.55,15.25,15.25,0,0,0-2.66-9.06,13.46,13.46,0,0,0-7.44-5.15q-3.57-1-11.78-1h-2.69Z" style="fill: #2b385a"/>
          <path d="M196.75,30.67,180.93,73.21h-4l15.8-42.54Z" style="fill: #2b385a"/>
          <path d="M201,59.58l21.73-9.65L201,40.21V36.55L227.72,48.3v3.23L201,63.22Z" style="fill: #2b385a"/>
        </g>
      </g>
    </g>
  </g>
</svg>
